<?xml version="1.0" encoding="utf-8"?>
<!-- Generator: Adobe Illustrator 24.3.0, SVG Export Plug-In . SVG Version: 6.00 Build 0)  -->
<svg version="1.1" id="Слой_1" xmlns="http://www.w3.org/2000/svg" xmlns:xlink="http://www.w3.org/1999/xlink" x="0px" y="0px"
	 viewBox="0 0 412 130" style="enable-background:new 0 0 412 130;" xml:space="preserve">
<style type="text/css">
	.st0{fill:#FFFFFF;}
</style>
<g>
	<g>
		<rect x="26.6" y="57" transform="matrix(0.7071 -0.7071 0.7071 0.7071 -36.4386 40.8381)" class="st0" width="9" height="14.8"/>
	</g>
	<g>
		
			<rect x="54.1" y="72.3" transform="matrix(0.7071 -0.7071 0.7071 0.7071 -39.7487 70.2191)" class="st0" width="21.6" height="21.6"/>
	</g>
	<g>
		<polygon class="st0" points="87.6,90.6 64.9,113.3 42.2,90.6 47.2,85.6 64.9,103.3 82.6,85.6 		"/>
	</g>
	<g>
		<polygon class="st0" points="95.6,98.6 64.9,129.4 34.2,98.6 39.4,93.4 64.9,118.9 90.4,93.4 		"/>
	</g>
	<g>
		<polygon class="st0" points="62.8,12.2 46.5,28.4 62.8,44.6 62.8,55.2 35.9,28.4 62.8,1.6 		"/>
	</g>
	<g>
		<path class="st0" d="M41.2,57.1l2.4,2.4L54,69.9l6.5-6.5l-30-30l-30,30l30,30l8.2-8.2l5-5l3.6-3.6L41,70.2L30.5,80.7L13.4,63.5
			l17.1-17.1L41.2,57.1z"/>
	</g>
	<g>
		<path class="st0" d="M99.5,46.6L117,64.1L99.5,81.6L88.8,70.9l-6.5,6.5l3.7,3.7l5.1,5.1l8.4,8.4l30.6-30.7L99.5,33.2L68.8,63.9
			l6.6,6.6l10.7-10.6l2.4-2.4L99.5,46.6z"/>
	</g>
	<g>
		<polygon class="st0" points="62.8,27.1 61.4,28.4 62.8,29.8 62.8,39.4 51.8,28.4 62.8,17.4 		"/>
	</g>
	<g>
		<polygon class="st0" points="93.9,28.4 67,55.3 67,44.7 83.3,28.4 67,12.1 67,1.5 		"/>
	</g>
	<g>
		<polygon class="st0" points="78,28.4 67,39.4 67,29.8 68.4,28.4 67,27 67,17.4 		"/>
	</g>
	<g>
		
			<rect x="55.3" y="61.8" transform="matrix(0.7071 -0.7071 0.7071 0.7071 -31.4157 62.6121)" class="st0" width="9.2" height="14.8"/>
	</g>
	<g>
		
			<rect x="64.4" y="62.9" transform="matrix(0.7071 0.7071 -0.7071 0.7071 69.9068 -28.2581)" class="st0" width="9.4" height="14.8"/>
	</g>
	<g>
		<rect x="95" y="57" transform="matrix(0.7071 0.7071 -0.7071 0.7071 74.6688 -51.4578)" class="st0" width="9" height="14.8"/>
	</g>
	<g>
		<rect x="145.7" y="1.6" class="st0" width="3.1" height="127.8"/>
	</g>
	<g>
		<path class="st0" d="M184.7,27.8c0,2.9-2.4,5.5-5.5,5.5h-11.1v5.5h-2.8V19.5h13.8c3,0,5.4,2.5,5.5,5.5V27.8z M181.9,25
			c0-1.5-1.2-2.8-2.8-2.8h-11.1v8.3h11.1c1.5,0,2.8-1.2,2.8-2.8V25z"/>
		<path class="st0" d="M190.4,27.8h13.8v2.8h-13.8v5.5h16.6v2.8h-19.4V19.5h19.4v2.8h-16.6V27.8z"/>
		<path class="st0" d="M229.2,38.8h-2.8v-5.5h-13.8v5.5h-2.8V25c0-2.9,2.4-5.5,5.5-5.5h8.3c3,0,5.4,2.5,5.5,5.5V38.8z M215.4,22.2
			c-1.5,0-2.8,1.2-2.8,2.8v5.5h13.8V25c0-1.5-1.2-2.8-2.8-2.8H215.4z"/>
		<path class="st0" d="M252,33.3c0,2.9-2.4,5.5-5.5,5.5h-13.8V19.5h16.6v2.8h-13.8v4.6h11.1c3,0,5.4,2.5,5.5,5.5V33.3z M249.2,32.4
			c0-1.5-1.2-2.8-2.8-2.8h-11.1v6.4h11.1c1.5,0,2.8-1.2,2.8-2.8V32.4z"/>
		<path class="st0" d="M254.9,19.5h2.8v19.4h-2.8V19.5z"/>
		<path class="st0" d="M280.5,19.5v19.4h-2.8V22.2h-11.1c-1.5,0-2.8,1.2-2.8,2.8v13.8h-2.8V25c0-3,2.4-5.4,5.5-5.5H280.5z"/>
		<path class="st0" d="M283.9,19.5h2.8v19.4h-2.8V19.5z"/>
		<path class="st0" d="M299.8,22.2v16.6H297V22.2h-8.3v-2.8h19.4v2.8H299.8z"/>
		<path class="st0" d="M329.5,38.8h-2.8v-5.5h-13.8v5.5h-2.8V25c0-2.9,2.4-5.5,5.5-5.5h8.3c3,0,5.4,2.5,5.5,5.5V38.8z M315.7,22.2
			c-1.5,0-2.8,1.2-2.8,2.8v5.5h13.8V25c0-1.5-1.2-2.8-2.8-2.8H315.7z"/>
		<path class="st0" d="M352.3,36.1h2.8v5.5h-2.8v-2.8H333V19.5h2.8v16.6h13.8V19.5h2.8V36.1z"/>
		<path class="st0" d="M357.4,19.5h2.8v19.4h-2.8V19.5z"/>
		<path class="st0" d="M363.6,19.5h2.8v15.3l13.8-15.3h2.8v19.4h-2.8V23.2l-13.8,15.6h-2.8V19.5z M378.8,14c0,2.9-2.4,5.5-5.5,5.5
			c-3,0-5.4-2.4-5.5-5.5h2.8c0,1.5,1.2,2.8,2.8,2.8c1.5,0,2.8-1.2,2.8-2.8H378.8z"/>
		<path class="st0" d="M389.2,27.8H403v-8.3h2.8v19.4H403v-8.3h-13.8v8.3h-2.8V19.5h2.8V27.8z"/>
		<path class="st0" d="M409.2,19.5h2.8v19.4h-2.8V19.5z"/>
		<path class="st0" d="M178.9,52.9c3,0,5.4,2.5,5.5,5.5h-2.8c0-1.5-1.2-2.8-2.8-2.8h-8.3c-1.5,0-2.8,1.2-2.8,2.8v8.3
			c0,1.5,1.2,2.8,2.8,2.8h8.3c1.5,0,2.8-1.2,2.8-2.8h2.8c0,2.9-2.4,5.5-5.5,5.5h-8.3c-3,0-5.5-2.4-5.5-5.5v-8.3c0-3,2.4-5.4,5.5-5.5
			H178.9z"/>
		<path class="st0" d="M187.3,52.9h2.8v15.3l13.8-15.3h2.8v19.3h-2.8V56.6l-13.8,15.6h-2.8V52.9z"/>
		<path class="st0" d="M229.5,52.9v19.3h-2.8V55.6h-11.1c-1.5,0-2.8,1.2-2.8,2.8v13.8h-2.8V58.4c0-3,2.4-5.4,5.5-5.5H229.5z"/>
		<path class="st0" d="M232.9,52.9h2.8v15.3l13.8-15.3h2.8v19.3h-2.8V56.6l-13.8,15.6h-2.8V52.9z"/>
		<path class="st0" d="M178.9,102.9c1.5,0,2.8-1.2,2.8-2.8v-2.8h-11.1c-3,0-5.5-2.4-5.5-5.5v-5.5h2.8v5.5c0,1.5,1.2,2.8,2.8,2.8
			h11.1v-8.3h2.8v13.8c0,2.9-2.4,5.5-5.5,5.5h-7.7c-3,0-5.4-2.4-5.5-5.5h2.8c0,1.5,1.2,2.8,2.8,2.8H178.9z"/>
		<path class="st0" d="M197.5,95.9l9.7,9.7h-3.9l-8.3-8.3h-4.4v8.3h-2.8V86.3h2.8v8.3h4.4l8.3-8.3h3.9L197.5,95.9z"/>
		<path class="st0" d="M228.6,94.6c0,2.9-2.4,5.5-5.5,5.5h-11.1v5.5h-2.8V86.3h13.8c3,0,5.4,2.5,5.5,5.5V94.6z M225.9,91.8
			c0-1.5-1.2-2.8-2.8-2.8h-11.1v8.3h11.1c1.5,0,2.8-1.2,2.8-2.8V91.8z"/>
		<path class="st0" d="M250.9,105.6h-2.8v-5.5h-13.8v5.5h-2.8V91.8c0-2.9,2.4-5.5,5.5-5.5h8.3c3,0,5.4,2.5,5.5,5.5V105.6z M237.1,89
			c-1.5,0-2.8,1.2-2.8,2.8v5.5h13.8v-5.5c0-1.5-1.2-2.8-2.8-2.8H237.1z"/>
		<path class="st0" d="M251.6,81.8h2.8v2.8h-2.8V81.8z M254.3,86.3h2.8v19.4h-2.8V86.3z M257.1,81.8h2.8v2.8h-2.8V81.8z"/>
		<path class="st0" d="M263.3,94.6h13.8v-8.3h2.8v19.4h-2.8v-8.3h-13.8v8.3h-2.8V86.3h2.8V94.6z"/>
		<path class="st0" d="M283.4,86.3h2.8v15.3l13.8-15.3h2.8v19.4h-2.8V90l-13.8,15.6h-2.8V86.3z"/>
	</g>
</g>
</svg>
