<svg aria-hidden="true" style="position: absolute; width: 0; height: 0; overflow: hidden;" version="1.1" xmlns="http://www.w3.org/2000/svg" xmlns:xlink="http://www.w3.org/1999/xlink">
<defs>
<symbol id="icon-volume" viewBox="0 0 22 28">
<path d="M9.641 26.391c0-0.375-0.828-3.031-1-3.656-0.094-0.391-0.125-1.031-0.422-1.313-0.203-0.187-0.531-0.219-0.797-0.219-0.734 0-1.469 0.172-2.203 0.172-0.219 0-0.547-0.016-0.734-0.172-0.25-0.203-0.375-0.906-0.469-1.219-0.375-1.297-0.578-2.625-0.578-3.984s0.203-2.688 0.578-3.984c0.094-0.313 0.219-1.016 0.469-1.219 0.187-0.156 0.516-0.172 0.734-0.172 0.734 0 1.469 0.172 2.203 0.172 0.266 0 0.594-0.031 0.797-0.219 0.297-0.281 0.328-0.922 0.422-1.313 0.172-0.625 1-3.281 1-3.656 0-0.531-1.406-1.313-1.859-1.484-0.234-0.094-0.469-0.125-0.703-0.125-0.516 0-1.031 0.141-1.531 0.281-2.562 0.766-3.172 2.328-4.188 4.531-1.094 2.359-1.359 4.609-1.359 7.187s0.266 4.828 1.359 7.187c1.016 2.203 1.625 3.766 4.188 4.531 0.5 0.141 1.016 0.281 1.531 0.281 0.234 0 0.469-0.031 0.703-0.125 0.453-0.172 1.859-0.953 1.859-1.484zM12.125 12.125c-0.266 0-0.516-0.109-0.703-0.297-0.391-0.391-0.406-1.031 0-1.422 0.375-0.375 0.578-0.875 0.578-1.406s-0.203-1.031-0.578-1.422c-0.406-0.391-0.391-1.016 0-1.406s1.016-0.391 1.406 0c0.75 0.75 1.172 1.766 1.172 2.828s-0.422 2.078-1.172 2.828c-0.203 0.187-0.453 0.297-0.703 0.297zM14.953 14.953c-0.266 0-0.516-0.094-0.703-0.297-0.391-0.391-0.391-1.016 0-1.406 1.125-1.141 1.75-2.641 1.75-4.25s-0.625-3.109-1.75-4.25c-0.391-0.391-0.391-1.016 0-1.406s1.016-0.391 1.406 0c1.516 1.516 2.344 3.516 2.344 5.656s-0.828 4.141-2.344 5.656c-0.187 0.203-0.453 0.297-0.703 0.297zM17.781 17.781c-0.266 0-0.516-0.094-0.703-0.297-0.391-0.391-0.391-1.016 0-1.406 1.875-1.891 2.922-4.406 2.922-7.078s-1.047-5.187-2.922-7.078c-0.391-0.391-0.391-1.016 0-1.406s1.016-0.391 1.406 0c2.266 2.266 3.516 5.281 3.516 8.484s-1.25 6.219-3.516 8.484c-0.187 0.203-0.453 0.297-0.703 0.297z"></path>
</symbol>
<symbol id="icon-mail" viewBox="0 0 32 32">
<path d="M28 5h-24c-2.209 0-4 1.792-4 4v13c0 2.209 1.791 4 4 4h24c2.209 0 4-1.791 4-4v-13c0-2.208-1.791-4-4-4zM2 10.25l6.999 5.25-6.999 5.25v-10.5zM30 22c0 1.104-0.898 2-2 2h-24c-1.103 0-2-0.896-2-2l7.832-5.875 4.368 3.277c0.533 0.398 1.166 0.6 1.8 0.6 0.633 0 1.266-0.201 1.799-0.6l4.369-3.277 7.832 5.875zM30 20.75l-7-5.25 7-5.25v10.5zM17.199 18.602c-0.349 0.262-0.763 0.4-1.199 0.4s-0.851-0.139-1.2-0.4l-12.8-9.602c0-1.103 0.897-2 2-2h24c1.102 0 2 0.897 2 2l-12.801 9.602z"></path>
</symbol>
<symbol id="icon-viber" viewBox="0 0 32 32">
<path d="M15.197 0.003c-2.567 0.035-8.089 0.456-11.179 3.287-2.293 2.28-3.095 5.641-3.188 9.804-0.080 4.147-0.173 11.933 7.333 14.055v3.227c0 0-0.051 1.293 0.803 1.56 1.053 0.333 1.653-0.665 2.653-1.732l1.867-2.107c5.133 0.427 9.067-0.559 9.52-0.705 1.040-0.333 6.908-1.081 7.868-8.869 0.987-8.041-0.48-13.108-3.12-15.401l-0.013-0.003c-0.8-0.733-4-3.067-11.16-3.093 0 0-0.528-0.033-1.384-0.021zM15.287 2.265c0.727-0.004 1.173 0.027 1.173 0.027 6.053 0.013 8.948 1.84 9.628 2.453 2.227 1.905 3.371 6.475 2.533 13.189-0.8 6.507-5.56 6.92-6.44 7.2-0.373 0.12-3.84 0.973-8.203 0.693 0 0-3.252 3.921-4.265 4.935-0.16 0.173-0.347 0.227-0.467 0.2-0.173-0.040-0.227-0.253-0.213-0.547l0.027-5.359c-6.361-1.76-5.988-8.403-5.921-11.869 0.080-3.467 0.733-6.309 2.667-8.229 2.609-2.36 7.3-2.68 9.481-2.693zM15.767 5.732c-0 0-0.001 0-0.001 0-0.22 0-0.399 0.178-0.399 0.399 0 0 0 0 0 0v0c0 0.221 0.179 0.4 0.4 0.4v0c0.043-0.001 0.093-0.001 0.143-0.001 2.034 0 3.88 0.809 5.232 2.123l-0.002-0.002c1.453 1.413 2.161 3.307 2.188 5.787 0 0.221 0.179 0.4 0.4 0.4v0-0.012c0.221 0 0.4-0.179 0.4-0.4v0c0.005-0.109 0.008-0.236 0.008-0.364 0-2.326-0.923-4.436-2.423-5.985l0.002 0.002c-1.587-1.547-3.589-2.347-5.948-2.347zM10.495 6.652c-0.054-0.008-0.116-0.013-0.18-0.013-0.236 0-0.457 0.064-0.646 0.176l0.006-0.003h-0.016c-0.547 0.32-1.051 0.72-1.531 1.253-0.36 0.427-0.561 0.852-0.615 1.265-0.009 0.064-0.014 0.137-0.014 0.212 0 0.182 0.029 0.357 0.084 0.521l-0.003-0.012 0.027 0.013c0.458 1.331 0.998 2.476 1.646 3.549l-0.046-0.082c0.895 1.608 1.922 2.996 3.101 4.237l-0.008-0.009 0.040 0.053 0.053 0.040 0.080 0.080c1.236 1.174 2.628 2.205 4.136 3.053l0.104 0.054c1.76 0.96 2.829 1.413 3.469 1.6v0.013c0.187 0.053 0.357 0.080 0.531 0.080 0.57-0.043 1.079-0.274 1.471-0.631l-0.002 0.002c0.52-0.467 0.933-0.984 1.24-1.531v-0.013c0.307-0.573 0.2-1.121-0.24-1.495-0.845-0.742-1.782-1.421-2.781-2.007l-0.085-0.046c-0.68-0.373-1.373-0.147-1.653 0.227l-0.6 0.759c-0.307 0.373-0.867 0.32-0.867 0.32l-0.016 0.013c-4.16-1.067-5.267-5.279-5.267-5.279s-0.053-0.573 0.333-0.867l0.747-0.6c0.36-0.293 0.613-0.987 0.227-1.667-0.631-1.084-1.31-2.022-2.071-2.887l0.017 0.020c-0.166-0.204-0.399-0.349-0.665-0.399l-0.007-0.001zM16.459 7.839c-0.22 0.001-0.399 0.18-0.399 0.4s0.179 0.4 0.4 0.4c0 0 0.001 0 0.001 0h-0c1.388 0.025 2.636 0.607 3.532 1.532l0.001 0.001c0.75 0.825 1.209 1.926 1.209 3.134 0 0.103-0.003 0.205-0.010 0.306l0.001-0.014c0.001 0.22 0.18 0.399 0.4 0.399 0 0 0 0 0 0v0l0.013 0.016c0 0 0 0 0 0 0.221 0 0.4-0.179 0.4-0.4 0-0 0-0.001 0-0.001v0c0.040-1.587-0.453-2.92-1.427-3.987s-2.333-1.667-4.067-1.787c-0.008-0.001-0.018-0.001-0.028-0.001s-0.020 0-0.029 0.001l0.001-0zM17.112 9.997c-0.004-0-0.008-0-0.012-0-0.225 0-0.407 0.182-0.407 0.408 0 0.221 0.176 0.401 0.395 0.407h0.001c1.32 0.067 1.96 0.733 2.040 2.107 0.007 0.215 0.184 0.387 0.4 0.387 0 0 0 0 0 0h0.013c0.215-0.007 0.388-0.183 0.388-0.4 0-0.009-0-0.019-0.001-0.028l0 0.001c-0.093-1.787-1.067-2.788-2.8-2.881-0.002-0-0.005-0-0.008-0s-0.006 0-0.008 0h0z"></path>
</symbol>
</defs>
</svg>
